<mxfile host="app.diagrams.net" modified="2024-06-26T18:53:30.161Z" agent="Mozilla/5.0 (Windows NT 10.0; Win64; x64) AppleWebKit/537.36 (KHTML, like Gecko) Chrome/126.0.0.0 Safari/537.36" etag="H3Njzdy6ViB9WlzXXD_D" version="24.6.3" type="device">
  <diagram id="C5RBs43oDa-KdzZeNtuy" name="Page-1">
    <mxGraphModel dx="819" dy="426" grid="1" gridSize="10" guides="1" tooltips="1" connect="1" arrows="1" fold="1" page="1" pageScale="1" pageWidth="827" pageHeight="1169" math="0" shadow="0">
      <root>
        <mxCell id="WIyWlLk6GJQsqaUBKTNV-0" />
        <mxCell id="WIyWlLk6GJQsqaUBKTNV-1" parent="WIyWlLk6GJQsqaUBKTNV-0" />
        <mxCell id="81JD8Uqs2qbsHUfiYzl0-0" value="ShopProductService" style="swimlane;fontStyle=1;align=center;verticalAlign=top;childLayout=stackLayout;horizontal=1;startSize=26;horizontalStack=0;resizeParent=1;resizeParentMax=0;resizeLast=0;collapsible=1;marginBottom=0;whiteSpace=wrap;html=1;" vertex="1" parent="WIyWlLk6GJQsqaUBKTNV-1">
          <mxGeometry x="110" y="150" width="160" height="86" as="geometry" />
        </mxCell>
        <mxCell id="81JD8Uqs2qbsHUfiYzl0-1" value="+ field: type" style="text;strokeColor=none;fillColor=none;align=left;verticalAlign=top;spacingLeft=4;spacingRight=4;overflow=hidden;rotatable=0;points=[[0,0.5],[1,0.5]];portConstraint=eastwest;whiteSpace=wrap;html=1;" vertex="1" parent="81JD8Uqs2qbsHUfiYzl0-0">
          <mxGeometry y="26" width="160" height="26" as="geometry" />
        </mxCell>
        <mxCell id="81JD8Uqs2qbsHUfiYzl0-2" value="" style="line;strokeWidth=1;fillColor=none;align=left;verticalAlign=middle;spacingTop=-1;spacingLeft=3;spacingRight=3;rotatable=0;labelPosition=right;points=[];portConstraint=eastwest;strokeColor=inherit;" vertex="1" parent="81JD8Uqs2qbsHUfiYzl0-0">
          <mxGeometry y="52" width="160" height="8" as="geometry" />
        </mxCell>
        <mxCell id="81JD8Uqs2qbsHUfiYzl0-3" value="+ fetchProducts()" style="text;strokeColor=none;fillColor=none;align=left;verticalAlign=top;spacingLeft=4;spacingRight=4;overflow=hidden;rotatable=0;points=[[0,0.5],[1,0.5]];portConstraint=eastwest;whiteSpace=wrap;html=1;" vertex="1" parent="81JD8Uqs2qbsHUfiYzl0-0">
          <mxGeometry y="60" width="160" height="26" as="geometry" />
        </mxCell>
        <mxCell id="81JD8Uqs2qbsHUfiYzl0-14" style="edgeStyle=orthogonalEdgeStyle;rounded=0;orthogonalLoop=1;jettySize=auto;html=1;entryX=0.75;entryY=0;entryDx=0;entryDy=0;" edge="1" parent="WIyWlLk6GJQsqaUBKTNV-1" source="81JD8Uqs2qbsHUfiYzl0-4" target="81JD8Uqs2qbsHUfiYzl0-8">
          <mxGeometry relative="1" as="geometry" />
        </mxCell>
        <mxCell id="81JD8Uqs2qbsHUfiYzl0-15" value="uses" style="edgeLabel;html=1;align=center;verticalAlign=middle;resizable=0;points=[];" vertex="1" connectable="0" parent="81JD8Uqs2qbsHUfiYzl0-14">
          <mxGeometry x="-0.0522" y="-2" relative="1" as="geometry">
            <mxPoint y="-11" as="offset" />
          </mxGeometry>
        </mxCell>
        <mxCell id="81JD8Uqs2qbsHUfiYzl0-4" value="ProductProviderClient" style="swimlane;fontStyle=1;align=center;verticalAlign=top;childLayout=stackLayout;horizontal=1;startSize=26;horizontalStack=0;resizeParent=1;resizeParentMax=0;resizeLast=0;collapsible=1;marginBottom=0;whiteSpace=wrap;html=1;" vertex="1" parent="WIyWlLk6GJQsqaUBKTNV-1">
          <mxGeometry x="490" y="150" width="210" height="86" as="geometry" />
        </mxCell>
        <mxCell id="81JD8Uqs2qbsHUfiYzl0-5" value="+ field: type" style="text;strokeColor=none;fillColor=none;align=left;verticalAlign=top;spacingLeft=4;spacingRight=4;overflow=hidden;rotatable=0;points=[[0,0.5],[1,0.5]];portConstraint=eastwest;whiteSpace=wrap;html=1;" vertex="1" parent="81JD8Uqs2qbsHUfiYzl0-4">
          <mxGeometry y="26" width="210" height="26" as="geometry" />
        </mxCell>
        <mxCell id="81JD8Uqs2qbsHUfiYzl0-6" value="" style="line;strokeWidth=1;fillColor=none;align=left;verticalAlign=middle;spacingTop=-1;spacingLeft=3;spacingRight=3;rotatable=0;labelPosition=right;points=[];portConstraint=eastwest;strokeColor=inherit;" vertex="1" parent="81JD8Uqs2qbsHUfiYzl0-4">
          <mxGeometry y="52" width="210" height="8" as="geometry" />
        </mxCell>
        <mxCell id="81JD8Uqs2qbsHUfiYzl0-7" value="+ displayItems(products: Products[])" style="text;strokeColor=none;fillColor=none;align=left;verticalAlign=top;spacingLeft=4;spacingRight=4;overflow=hidden;rotatable=0;points=[[0,0.5],[1,0.5]];portConstraint=eastwest;whiteSpace=wrap;html=1;" vertex="1" parent="81JD8Uqs2qbsHUfiYzl0-4">
          <mxGeometry y="60" width="210" height="26" as="geometry" />
        </mxCell>
        <mxCell id="81JD8Uqs2qbsHUfiYzl0-13" style="edgeStyle=orthogonalEdgeStyle;rounded=0;orthogonalLoop=1;jettySize=auto;html=1;exitX=0.25;exitY=0;exitDx=0;exitDy=0;entryX=1;entryY=0.5;entryDx=0;entryDy=0;" edge="1" parent="WIyWlLk6GJQsqaUBKTNV-1" source="81JD8Uqs2qbsHUfiYzl0-8" target="81JD8Uqs2qbsHUfiYzl0-3">
          <mxGeometry relative="1" as="geometry" />
        </mxCell>
        <mxCell id="81JD8Uqs2qbsHUfiYzl0-16" value="creates" style="edgeLabel;html=1;align=center;verticalAlign=middle;resizable=0;points=[];" vertex="1" connectable="0" parent="81JD8Uqs2qbsHUfiYzl0-13">
          <mxGeometry x="-0.2475" y="-1" relative="1" as="geometry">
            <mxPoint x="-15" y="-45" as="offset" />
          </mxGeometry>
        </mxCell>
        <mxCell id="81JD8Uqs2qbsHUfiYzl0-8" value="ProductProxy" style="swimlane;fontStyle=1;align=center;verticalAlign=top;childLayout=stackLayout;horizontal=1;startSize=26;horizontalStack=0;resizeParent=1;resizeParentMax=0;resizeLast=0;collapsible=1;marginBottom=0;whiteSpace=wrap;html=1;" vertex="1" parent="WIyWlLk6GJQsqaUBKTNV-1">
          <mxGeometry x="320" y="330" width="174" height="94" as="geometry" />
        </mxCell>
        <mxCell id="81JD8Uqs2qbsHUfiYzl0-9" value="- shopProductService&lt;div&gt;- productCache: Product[]&lt;/div&gt;" style="text;strokeColor=none;fillColor=none;align=left;verticalAlign=top;spacingLeft=4;spacingRight=4;overflow=hidden;rotatable=0;points=[[0,0.5],[1,0.5]];portConstraint=eastwest;whiteSpace=wrap;html=1;" vertex="1" parent="81JD8Uqs2qbsHUfiYzl0-8">
          <mxGeometry y="26" width="174" height="34" as="geometry" />
        </mxCell>
        <mxCell id="81JD8Uqs2qbsHUfiYzl0-10" value="" style="line;strokeWidth=1;fillColor=none;align=left;verticalAlign=middle;spacingTop=-1;spacingLeft=3;spacingRight=3;rotatable=0;labelPosition=right;points=[];portConstraint=eastwest;strokeColor=inherit;" vertex="1" parent="81JD8Uqs2qbsHUfiYzl0-8">
          <mxGeometry y="60" width="174" height="8" as="geometry" />
        </mxCell>
        <mxCell id="81JD8Uqs2qbsHUfiYzl0-11" value="+ fetchProducts()" style="text;strokeColor=none;fillColor=none;align=left;verticalAlign=top;spacingLeft=4;spacingRight=4;overflow=hidden;rotatable=0;points=[[0,0.5],[1,0.5]];portConstraint=eastwest;whiteSpace=wrap;html=1;" vertex="1" parent="81JD8Uqs2qbsHUfiYzl0-8">
          <mxGeometry y="68" width="174" height="26" as="geometry" />
        </mxCell>
        <mxCell id="81JD8Uqs2qbsHUfiYzl0-12" style="edgeStyle=orthogonalEdgeStyle;rounded=0;orthogonalLoop=1;jettySize=auto;html=1;entryX=0.117;entryY=0;entryDx=0;entryDy=0;entryPerimeter=0;" edge="1" parent="WIyWlLk6GJQsqaUBKTNV-1" source="81JD8Uqs2qbsHUfiYzl0-0" target="81JD8Uqs2qbsHUfiYzl0-8">
          <mxGeometry relative="1" as="geometry">
            <Array as="points">
              <mxPoint x="190" y="260" />
              <mxPoint x="340" y="260" />
            </Array>
          </mxGeometry>
        </mxCell>
        <mxCell id="81JD8Uqs2qbsHUfiYzl0-17" value="uses" style="edgeLabel;html=1;align=center;verticalAlign=middle;resizable=0;points=[];" vertex="1" connectable="0" parent="81JD8Uqs2qbsHUfiYzl0-12">
          <mxGeometry x="-0.2135" y="1" relative="1" as="geometry">
            <mxPoint y="11" as="offset" />
          </mxGeometry>
        </mxCell>
      </root>
    </mxGraphModel>
  </diagram>
</mxfile>
